<svg id="Layer_1" data-name="Layer 1" xmlns="http://www.w3.org/2000/svg" viewBox="0 0 24 24"><defs><style>.cls-1{fill:#222528;}</style></defs><title>accounts</title><path class="cls-1" d="M8.14,23.06a.94.94,0,0,1-.94.94H5.05A3.75,3.75,0,0,1,1.3,20.25V3.75A3.75,3.75,0,0,1,5.05,0H16.58a3.75,3.75,0,0,1,3.75,3.75V9.33a.94.94,0,0,1-1.87,0V3.75a1.88,1.88,0,0,0-1.87-1.87H5.05A1.88,1.88,0,0,0,3.18,3.75v16.5a1.88,1.88,0,0,0,1.88,1.88H7.21a.94.94,0,0,1,.94.94Zm8.43-16.5a.94.94,0,0,0-.94-.94H6A.94.94,0,0,0,6,7.5h9.66a.94.94,0,0,0,.94-.94Zm-3.74,3.75a.94.94,0,0,0-.94-.94H6a.94.94,0,0,0,0,1.87h5.91a.94.94,0,0,0,.94-.94ZM6,13.13A.94.94,0,0,0,5.92,15h4a.94.94,0,0,0,0-1.87ZM22.34,23.3a1.88,1.88,0,0,1-1.46.7H11.72a1.9,1.9,0,0,1-1.85-2.28,6.57,6.57,0,0,1,3.68-4.63,3.66,3.66,0,1,1,5.49,0,6.53,6.53,0,0,1,1.43.9,6.61,6.61,0,0,1,2.24,3.65l0,.08a1.91,1.91,0,0,1-.39,1.6Zm-7.82-8.63a1.78,1.78,0,1,0,1.78-1.78A1.78,1.78,0,0,0,14.52,14.67Zm6.37,7.43h0a4.69,4.69,0,0,0-9.19,0,0,0,0,0,0,0,0h9.16l0,0Z"/></svg>