<svg id="Layer_1" data-name="Layer 1" xmlns="http://www.w3.org/2000/svg" viewBox="0 0 24 24"><defs><style>.cls-1{fill:#222528;}</style></defs><title>assets</title><path class="cls-1" d="M9.38,10a.7.7,0,0,0-1.24,0L5,15.79a1,1,0,0,0,.08,1.06L8.2,21a.71.71,0,0,0,1.13,0l3.08-4.1a1,1,0,0,0,.08-1.07Zm-.62,8.6L7,16.18,8.76,12.8l1.81,3.38ZM21.29.58A20.34,20.34,0,0,0,16.17,0a20.35,20.35,0,0,0-5.12.58c-1.8.49-2.71,1.24-2.71,2.23V6.48a8.77,8.77,0,1,0,3.22,17.06,21.38,21.38,0,0,0,4.61.46,20.34,20.34,0,0,0,5.12-.58c1.8-.49,2.71-1.24,2.71-2.23V2.81c0-1-.91-1.74-2.71-2.23ZM1.88,15.24a6.89,6.89,0,0,1,8.5-6.7l.68.21.11,0a6.89,6.89,0,1,1-9.29,6.46Zm18.47,6.49a19.86,19.86,0,0,1-4.18.4c-.65,0-1.29,0-1.9-.08a8.85,8.85,0,0,0,1.65-1.75h.25a23.81,23.81,0,0,0,3.27-.22.94.94,0,1,0-.26-1.86,21.14,21.14,0,0,1-2.25.19,8.68,8.68,0,0,0,.48-1.75c.7,0,1.38-.1,2-.18a.94.94,0,0,0-.26-1.86c-.53.07-1.09.13-1.66.16a8.75,8.75,0,0,0-.26-1.72c.76,0,1.49-.09,2.18-.19a.94.94,0,0,0,.8-1.06h0a.94.94,0,0,0-1.06-.8h0a21.75,21.75,0,0,1-2.64.19,8.81,8.81,0,0,0-1.33-1.89l1,0a23.81,23.81,0,0,0,3.27-.21.94.94,0,1,0-.26-1.86,22.23,22.23,0,0,1-3,.2A19.87,19.87,0,0,1,12,7L11.73,7a8.47,8.47,0,0,0-.81-.25,2.52,2.52,0,0,1-.7-.36V4.77a8.49,8.49,0,0,0,.83.27,20.35,20.35,0,0,0,5.12.58,23.81,23.81,0,0,0,3.27-.22.94.94,0,1,0-.26-1.86,22.14,22.14,0,0,1-3,.2A19.87,19.87,0,0,1,12,3.35a6.07,6.07,0,0,1-1.57-.53A6.07,6.07,0,0,1,12,2.28a19.87,19.87,0,0,1,4.18-.41,19.86,19.86,0,0,1,4.18.41A4.6,4.6,0,0,1,22.13,3v18.1A4.6,4.6,0,0,1,20.35,21.72Z"/></svg>