<svg id="Layer_1" data-name="Layer 1" xmlns="http://www.w3.org/2000/svg" viewBox="0 0 24 24"><defs><style>.cls-1{fill:#222528;}</style></defs><title>burn</title><path class="cls-1" d="M22.05,17.72l-.34-.13L20,16.85l2-.94a3.26,3.26,0,0,0,1.66-4.31h0a3.29,3.29,0,0,0-4.33-1.65l-1.65.75a6,6,0,0,0,.35-2.08c0-2.32-1.47-3.64-2.63-4.7S13.6,2.14,13.6.94A.94.94,0,0,0,12.16.15L12.07.2A18.06,18.06,0,0,0,8.7,2.86,8.29,8.29,0,0,0,6,8.62a6,6,0,0,0,.38,2.11L4.62,9.93a3.27,3.27,0,0,0-2.68,6h0l2,.94-1.68.74-.36.13A3.28,3.28,0,0,0,.29,22.06h0A3.27,3.27,0,0,0,4.6,23.72l.06,0L12,20.45l.16-.09a.94.94,0,0,0,.13-1.75L2.72,14.2h0A1.39,1.39,0,0,1,2,13.41a1.37,1.37,0,0,1,0-1.06,1.41,1.41,0,0,1,1.86-.71l14.71,6.59a3.3,3.3,0,0,0-1.13,2.57l-1.26-.56A.94.94,0,0,0,15.42,22l4,1.76.08,0a3.28,3.28,0,0,0,2.59-6ZM6.28,19.39a3.27,3.27,0,0,0-.84-1.14l.82-.36,3.38,1.56L6.56,20.81A3.27,3.27,0,0,0,6.28,19.39ZM2.78,22A1.4,1.4,0,0,1,2,21.29H2a1.41,1.41,0,0,1,.71-1.86h0v0l.19-.09a1.39,1.39,0,0,1,.34,0A1.41,1.41,0,1,1,2.78,22ZM20.15,11.65a1.41,1.41,0,0,1,1.85.71,1.37,1.37,0,0,1,0,1.06,1.39,1.39,0,0,1-.74.78l-3.51,1.63-3.44-1.54Zm-9.3-.05a3.59,3.59,0,0,1,.89-2,6,6,0,0,0,.82.9c.51.48.7.7.7,1.06a1.2,1.2,0,1,1-2.4,0ZM12,2.51a7.51,7.51,0,0,0,2.2,2.78c1.08,1,2,1.84,2,3.33a4.11,4.11,0,0,1-1.1,2.83,3.32,3.32,0,0,0-1.27-2.27c-.52-.49-.79-.78-.79-1.31a.94.94,0,0,0-1.55-.71c-.25.22-2.43,2.13-2.53,4.28a4.17,4.17,0,0,1-1.1-2.82C7.88,6.57,9.33,4.43,12,2.51ZM22,21.29h0a1.41,1.41,0,1,1-.94-1.93l.19.08.16.06a1.41,1.41,0,0,1,.6,1.8Z"/></svg>