<svg id="Layer_1" data-name="Layer 1" xmlns="http://www.w3.org/2000/svg" viewBox="0 0 24 24"><defs><style>.cls-1{fill:#222528;}</style></defs><title>buy</title><path class="cls-1" d="M6.55,11.85H1a.94.94,0,1,0-.06,1.88H6.55a.94.94,0,1,0,.06-1.87Z"/><path class="cls-1" d="M1,10H4.23a3,3,0,0,0,3-3V6.88A3,3,0,0,0,5.92,4.45,2.88,2.88,0,0,0,3.49,0H1A.94.94,0,0,0,0,1H0V9A.94.94,0,0,0,1,10Zm.94-8.06H3.49a1,1,0,0,1,0,2H1.91Zm0,3.89H4.23a1.15,1.15,0,0,1,0,2.29H1.91Z"/><path class="cls-1" d="M23.09,11.85H17.52a.94.94,0,0,0-.06,1.88h5.64a.94.94,0,0,0,0-1.87Z"/><path class="cls-1" d="M12.17,10A3.38,3.38,0,0,0,15.55,6.6V1A.94.94,0,1,0,13.67.91s0,0,0,.06V6.6a1.5,1.5,0,0,1-3,0V1A.94.94,0,1,0,8.8.91s0,0,0,.06V6.6A3.38,3.38,0,0,0,12.17,10Z"/><path class="cls-1" d="M23.09,0a.94.94,0,0,0-.94.94h0V2.85a1.5,1.5,0,0,1-3,0V1a.94.94,0,0,0-1.87,0V2.85a3.37,3.37,0,0,0,4.88,3V6.6a1.5,1.5,0,0,1-1.5,1.5H18.22A.94.94,0,0,0,18.16,10h2.5A3.38,3.38,0,0,0,24,6.6V1A.94.94,0,0,0,23.1,0Z"/><path class="cls-1" d="M17.51,15.89l-5-4.52,0,0A1.9,1.9,0,0,0,9.36,12.8v7a2,2,0,0,0,1.92,1.94h0a.94.94,0,0,0,0-1.87s-.06,0-.06-.06v-7h0l4.94,4.46a.07.07,0,0,1,0,0H13.86A.94.94,0,0,0,13,18.63l2.35,4.88a.94.94,0,1,0,1.72-.76l0-.06-1.7-3.53h.9a1.91,1.91,0,0,0,1.31-3.21Z"/></svg>