<svg xmlns="http://www.w3.org/2000/svg" width="14.909" height="18" viewBox="0 0 14.909 18">
  <path id="copy" d="M56.024,4.5a.7.7,0,0,1-.7.7H50.332a.7.7,0,0,1,0-1.406h4.989A.7.7,0,0,1,56.024,4.5Zm0,2.813a.7.7,0,0,0-.7-.7H50.332a.7.7,0,0,0,0,1.406h4.989A.7.7,0,0,0,56.024,7.314Zm-5.692,2.11a.7.7,0,1,0,0,1.406h2.145a.7.7,0,0,0,0-1.406Zm7.138-.563V2.813a1.408,1.408,0,0,0-1.406-1.406h-6.47a1.408,1.408,0,0,0-1.406,1.406v9.563a1.407,1.407,0,0,0,1.406,1.406h0l6.47,0a1.408,1.408,0,0,0,1.406-1.406.7.7,0,0,1,1.406,0,2.817,2.817,0,0,1-2.461,2.791v.021A2.816,2.816,0,0,1,53.6,18H46.781a2.816,2.816,0,0,1-2.813-2.813V5.623A2.816,2.816,0,0,1,46.781,2.81h0A2.816,2.816,0,0,1,49.594,0h6.47a2.816,2.816,0,0,1,2.813,2.813V8.861a.7.7,0,0,1-1.407,0Zm-9.865,5.5a2.794,2.794,0,0,1-.824-1.989V4.217a1.408,1.408,0,0,0-1.406,1.406v9.564a1.408,1.408,0,0,0,1.406,1.406H53.6a1.408,1.408,0,0,0,1.406-1.406H49.594A2.794,2.794,0,0,1,47.605,14.366Z" transform="translate(-43.968)" fill="#171717"/>
</svg>
