<svg id="Layer_1" data-name="Layer 1" xmlns="http://www.w3.org/2000/svg" viewBox="0 0 24 24"><defs><style>.cls-1{fill:#222528;}</style></defs><title>close</title><path class="cls-1" d="M15.7,9.64,13.31,12l2.38,2.38a.94.94,0,0,1-1.33,1.33L12,13.35,9.6,15.73a.94.94,0,0,1-1.33-1.33h0L10.66,12,8.28,9.64A.94.94,0,0,1,9.6,8.31L12,10.7l2.38-2.38A.94.94,0,0,1,15.7,9.64Z"/><path class="cls-1" d="M10.34,23.92a12,12,0,1,1,13.14-8.37c-.05.18-.11.36-.17.53a.94.94,0,0,1-1.76-.63c.05-.15.1-.3.15-.45A10.12,10.12,0,1,0,2,13.79H2A10.18,10.18,0,0,0,6.1,20.26h0l0,0a10.14,10.14,0,0,0,12-.16.94.94,0,1,1,1.13,1.5A11.91,11.91,0,0,1,12,24,12.16,12.16,0,0,1,10.34,23.92Z"/></svg>