<svg id="Layer_1" data-name="Layer 1" xmlns="http://www.w3.org/2000/svg" viewBox="0 0 24 24"><defs><style>.cls-1{fill:#222528;}</style></defs><title>connecting</title><path class="cls-1" d="M5.39,6.23A.93.93,0,0,1,4.72,6L2.57,3.75A.94.94,0,0,1,3.9,2.44l2.16,2.2a.94.94,0,0,1-.67,1.59ZM9.61,4.08V.94a.94.94,0,1,0-1.88,0V4.08a.94.94,0,0,0,1.88,0ZM5,8.53a.94.94,0,0,0-.94-.94H.94a.94.94,0,1,0,0,1.87H4.08A.94.94,0,0,0,5,8.53Zm16.41,13a.94.94,0,0,0,0-1.33h0L19.28,18a.94.94,0,1,0-1.34,1.31h0l2.16,2.2a.94.94,0,0,0,1.33,0h0Zm-5.16,1.49V19.92a.94.94,0,0,0-1.87,0v3.14a.94.94,0,0,0,1.88,0ZM24,15.47a.94.94,0,0,0-.94-.94H19.92a.94.94,0,1,0,0,1.88h3.14a.94.94,0,0,0,.94-.94Zm-7.73-1.83a7.78,7.78,0,0,0,4.91-2.5l0-.05.07-.09.09-.07,0,0A7.57,7.57,0,0,0,24,5.68a5.43,5.43,0,0,0-1.75-3.91,7,7,0,0,0-.68-.6l0,0-.09-.08A5.16,5.16,0,0,0,18.32,0a7.58,7.58,0,0,0-5.2,2.55l0,.05L13,2.69l-.09.07-.05,0A7.57,7.57,0,0,0,10.31,8a5.05,5.05,0,0,0,.51,2.19.94.94,0,1,0,1.69-.81A3.2,3.2,0,0,1,12.19,8a5.77,5.77,0,0,1,2-3.85l.11-.1.1-.1.1-.11a5.77,5.77,0,0,1,3.85-2,3.3,3.3,0,0,1,1.93.64l.06,0,.11.09a5.13,5.13,0,0,1,.5.44,3.62,3.62,0,0,1,1.2,2.58,5.77,5.77,0,0,1-2,3.85l-.11.1-.1.1-.1.11a6,6,0,0,1-3.68,1.94.94.94,0,0,0,.06,1.87Zm-5.4,7.81,0-.05.08-.08.09-.07.05,0A7.57,7.57,0,0,0,13.69,16a5.05,5.05,0,0,0-.51-2.19.94.94,0,1,0-1.69.81A3.2,3.2,0,0,1,11.81,16a5.77,5.77,0,0,1-2,3.85l-.11.1-.1.1-.1.11a5.77,5.77,0,0,1-3.85,2,3.3,3.3,0,0,1-1.93-.65l-.06,0-.11-.08a5.13,5.13,0,0,1-.5-.44,3.62,3.62,0,0,1-1.2-2.58,5.77,5.77,0,0,1,2-3.86l.11-.1.1-.1.1-.11a6,6,0,0,1,3.62-2,.94.94,0,0,0-.11-1.87,7.7,7.7,0,0,0-4.87,2.55l0,.05L2.69,13l-.09.07,0,0A7.57,7.57,0,0,0,0,18.32a5.43,5.43,0,0,0,1.75,3.91,7,7,0,0,0,.69.6l0,0,.09.08A5.16,5.16,0,0,0,5.68,24a7.58,7.58,0,0,0,5.2-2.55Z"/></svg>