<svg id="Layer_1" data-name="Layer 1" xmlns="http://www.w3.org/2000/svg" viewBox="0 0 24 24"><defs><style>.cls-1{fill:#222528;}</style></defs><title>connect</title><path class="cls-1" d="M16.27,13.64a7.78,7.78,0,0,0,4.91-2.5l0-.05.07-.09.09-.07,0,0A7.57,7.57,0,0,0,24,5.68a5.43,5.43,0,0,0-1.75-3.91,7,7,0,0,0-.68-.6l0,0-.09-.08A5.16,5.16,0,0,0,18.32,0a7.58,7.58,0,0,0-5.2,2.55l0,.05L13,2.69l-.09.07-.05,0A7.57,7.57,0,0,0,10.31,8a5.05,5.05,0,0,0,.51,2.19.94.94,0,1,0,1.69-.81A3.2,3.2,0,0,1,12.19,8a5.77,5.77,0,0,1,2-3.85l.11-.1.1-.1.1-.11a5.77,5.77,0,0,1,3.85-2,3.3,3.3,0,0,1,1.93.64l.06,0,.11.09a5.13,5.13,0,0,1,.5.44,3.62,3.62,0,0,1,1.2,2.58,5.77,5.77,0,0,1-2,3.85l-.11.1-.1.1-.1.11a6,6,0,0,1-3.68,1.94.94.94,0,0,0,.06,1.87Zm-5.4,7.81,0-.05.08-.08.09-.07.05,0A7.57,7.57,0,0,0,13.69,16a5.05,5.05,0,0,0-.51-2.19.94.94,0,1,0-1.69.81A3.2,3.2,0,0,1,11.81,16a5.77,5.77,0,0,1-2,3.85l-.11.1-.1.1-.1.11a5.77,5.77,0,0,1-3.85,2,3.3,3.3,0,0,1-1.93-.65l-.06,0-.11-.08a5.13,5.13,0,0,1-.5-.44,3.62,3.62,0,0,1-1.2-2.58,5.77,5.77,0,0,1,2-3.86l.11-.1.1-.1.1-.11a6,6,0,0,1,3.62-2,.94.94,0,0,0-.11-1.87,7.7,7.7,0,0,0-4.87,2.55l0,.05L2.69,13l-.09.07,0,0A7.57,7.57,0,0,0,0,18.32a5.43,5.43,0,0,0,1.75,3.91,7,7,0,0,0,.69.6l0,0,.09.08A5.16,5.16,0,0,0,5.68,24a7.58,7.58,0,0,0,5.2-2.55Z"/></svg>