<svg id="Layer_1" data-name="Layer 1" xmlns="http://www.w3.org/2000/svg" viewBox="0 0 24 24"><defs><style>.cls-1{fill:#222528;}</style></defs><title>create-account</title><path class="cls-1" d="M15.39,22.13H3.85a1,1,0,0,1-.75-.36,1,1,0,0,1-.2-.82,10.36,10.36,0,0,1,9.85-8.2h.5a10.21,10.21,0,0,1,4.17,1A.94.94,0,1,0,18.23,12h0a12.06,12.06,0,0,0-1.41-.57,6.38,6.38,0,1,0-7.64,0,12.2,12.2,0,0,0-8.13,9.09A2.85,2.85,0,0,0,3.85,24H15.4a.94.94,0,0,0,.94-.94h0a.94.94,0,0,0-.94-.94ZM8.5,6.38a4.5,4.5,0,1,1,4.73,4.49h-.46A4.51,4.51,0,0,1,8.5,6.38ZM25,19.55a.94.94,0,0,1-.94.94H21.49v2.58a.94.94,0,1,1-1.87,0h0V20.49H17a.94.94,0,1,1,0-1.88h2.58V16a.94.94,0,0,1,.94-.94h0a.94.94,0,0,1,.94.94v2.58h2.58A.94.94,0,0,1,25,19.55Z"/></svg>