<svg id="Layer_1" data-name="Layer 1" xmlns="http://www.w3.org/2000/svg" viewBox="0 0 24 24"><defs><style>.cls-1{fill:#222528;}</style></defs><title>dashboard</title><path class="cls-1" d="M20.25,10.23a.94.94,0,0,1-.94.94H13.88a.94.94,0,0,1,0-1.88h5.44a.94.94,0,0,1,.94.94ZM10.13,9.3H4.69a.94.94,0,0,0,0,1.88h5.44a.94.94,0,0,0,0-1.88ZM20.25,14a.94.94,0,0,0-.94-.94H13.88a.94.94,0,0,0,0,1.88h5.44a.94.94,0,0,0,.94-.94ZM10.13,13H4.69a.94.94,0,0,0,0,1.88h5.44a.94.94,0,0,0,0-1.87Zm3.75,3.75a.94.94,0,0,0,0,1.88h3.56a.94.94,0,0,0,0-1.87Zm-3.75,0H4.69a.94.94,0,0,0,0,1.88h5.44a.94.94,0,0,0,0-1.87ZM24,3.81V14.69a.94.94,0,0,1-1.87,0v-8H1.88v12.7a1.88,1.88,0,0,0,1.87,1.88h16.5a1.88,1.88,0,0,0,1.88-1.87.94.94,0,0,1,1.88,0,3.75,3.75,0,0,1-3.75,3.75H3.75A3.75,3.75,0,0,1,0,19.38V3.81A2.81,2.81,0,0,1,2.81,1H21.19A2.82,2.82,0,0,1,24,3.81Zm-7.55,0a.94.94,0,1,0,.94-.94A.94.94,0,0,0,16.45,3.81Zm4.69-.94a.94.94,0,1,0,.94.94.94.94,0,0,0-.94-.94ZM1.88,4.8H14.76a2.81,2.81,0,0,1,0-1.92H2.81a.94.94,0,0,0-.94.94Z"/></svg>