<svg id="Layer_1" data-name="Layer 1" xmlns="http://www.w3.org/2000/svg" viewBox="0 0 24 24"><defs><style>.cls-1{fill:#222528;}</style></defs><title>deposit</title><path class="cls-1" d="M20.25,0H3.75A3.75,3.75,0,0,0,0,3.75V13.88a3.75,3.75,0,0,0,3.75,3.75H5a.94.94,0,0,0,0-1.87H3.75a1.88,1.88,0,0,1-1.87-1.87v-7H22.13V9.19a.94.94,0,1,0,1.88,0V3.75A3.75,3.75,0,0,0,20.25,0ZM1.88,5V3.75A1.88,1.88,0,0,1,3.75,1.88h16.5a1.88,1.88,0,0,1,1.88,1.88V5ZM24,13.88a3.75,3.75,0,0,1-3.75,3.75H19a.94.94,0,0,1,0-1.87h1.22a1.88,1.88,0,0,0,1.88-1.87.94.94,0,0,1,1.88,0ZM15.94,16a.94.94,0,0,1-1.32,1.33l-1.73-1.71v7.42a.94.94,0,0,1-1.87,0V15.74L9.38,17.35A.94.94,0,1,1,8.06,16L10,14.09a2.81,2.81,0,0,1,4,0h0Z"/></svg>