<svg id="Layer_1" data-name="Layer 1" xmlns="http://www.w3.org/2000/svg" viewBox="0 0 24 24"><defs><style>.cls-1{fill:#222528;}</style></defs><title>exchange</title><path class="cls-1" d="M23.06,12.94a.94.94,0,1,0,0-1.88H13V7.26a2.35,2.35,0,0,0-2.34-2.34H9.8A2.35,2.35,0,0,0,7.46,7.26v3.8H5.63V2.34A2.35,2.35,0,0,0,3.28,0H2.34A2.35,2.35,0,0,0,0,2.34V12a.94.94,0,0,0,.94.94H11.11v4a2.35,2.35,0,0,0,2.34,2.34h.85A2.35,2.35,0,0,0,16.64,17v-4h1.83v8.72A2.35,2.35,0,0,0,20.81,24h.84A2.35,2.35,0,0,0,24,21.66v-5a.94.94,0,0,0-1.87,0h0v5a.47.47,0,0,1-.47.47h-.84a.47.47,0,0,1-.47-.47V12.94ZM9.33,7.27A.47.47,0,0,1,9.8,6.8h.84a.47.47,0,0,1,.47.47h0v3.8H9.33Zm-7-5.39h.94a.47.47,0,0,1,.47.47h0v8.72H1.88V2.34a.47.47,0,0,1,.47-.47ZM14.77,17a.47.47,0,0,1-.47.47h-.84A.47.47,0,0,1,13,17h0v-4h1.78ZM16,4A.94.94,0,0,1,17,3h2.11V.94A.94.94,0,1,1,21,.94h0V3h2.11A.94.94,0,0,1,24,4h0a.94.94,0,0,1-.94.94H21V7A.94.94,0,0,1,20,8h0A.94.94,0,0,1,19.08,7h0V4.92H17A.94.94,0,0,1,16,4ZM8,21.66a.94.94,0,0,1-.94.94H.94A.94.94,0,0,1,0,21.66H0a.94.94,0,0,1,.94-.94H7A.94.94,0,0,1,8,21.66Z"/></svg>