<svg id="Layer_1" data-name="Layer 1" xmlns="http://www.w3.org/2000/svg" viewBox="0 0 24 24"><defs><style>.cls-1{fill:#222528;}</style></defs><title>explore</title><path class="cls-1" d="M24,9.84a9.84,9.84,0,0,1-1.29,4.87.94.94,0,0,1-1.28.35h0a.94.94,0,0,1-.35-1.28,8,8,0,1,0-3,3,.94.94,0,0,1,1.28.36h0A.94.94,0,0,1,19,18.43h0a9.84,9.84,0,0,1-11.06-1L1.6,23.73A.94.94,0,0,1,.28,22.4l6.31-6.27A9.84,9.84,0,1,1,24,9.84Zm-3.55-.4a.94.94,0,0,1,0,1.08l-.22.3A13.19,13.19,0,0,1,18.17,13a6.43,6.43,0,0,1-4,1.58,6.43,6.43,0,0,1-4-1.58,13.17,13.17,0,0,1-2.07-2.13l-.22-.3a.94.94,0,0,1,0-1.08l.22-.29A13.19,13.19,0,0,1,10.15,7a6.43,6.43,0,0,1,4-1.58,6.43,6.43,0,0,1,4,1.58,13.17,13.17,0,0,1,2.07,2.13l.22.3Zm-2,.54c-1.49-1.77-3-2.67-4.34-2.67s-2.85.9-4.34,2.67c1.49,1.77,3,2.67,4.34,2.67S17,11.76,18.5,10ZM14.2,8.2a1.78,1.78,0,0,0,0,3.57h0a1.78,1.78,0,0,0,0-3.57Z"/></svg>