<svg id="Layer_1" data-name="Layer 1" xmlns="http://www.w3.org/2000/svg" viewBox="0 0 24 24"><defs><style>.cls-1{fill:#222528;}</style></defs><title>eye</title><circle class="cls-1" cx="12.05" cy="12.09" r="1.83"/><path class="cls-1" d="M12,6.75a5.34,5.34,0,1,0,5.34,5.34h0A5.35,5.35,0,0,0,12,6.75Zm0,8.81a3.47,3.47,0,1,1,3.47-3.47h0A3.47,3.47,0,0,1,12,15.56Z"/><path class="cls-1" d="M23.39,10A18.12,18.12,0,0,0,19.2,5.61,11.93,11.93,0,0,0,12,3,12,12,0,0,0,4.83,5.6,18.25,18.25,0,0,0,.62,10a3.74,3.74,0,0,0,0,4.12,18.25,18.25,0,0,0,4.21,4.43A12,12,0,0,0,12,21.18a13,13,0,0,0,8.67-3.86.94.94,0,1,0-1.28-1.37A11.18,11.18,0,0,1,12,19.3c-4.55,0-8.32-3.89-9.84-6.19a1.87,1.87,0,0,1,0-2.06C3.7,8.75,7.47,4.86,12,4.86s8.3,3.89,9.8,6.2a1.88,1.88,0,0,1,0,2,.94.94,0,1,0,1.57,1h0A3.75,3.75,0,0,0,23.39,10Z"/></svg>