<svg id="Layer_1" data-name="Layer 1" xmlns="http://www.w3.org/2000/svg" viewBox="0 0 24 24"><defs><style>.cls-1{fill:#222528;}</style></defs><title>help</title><path class="cls-1" d="M11.92,24h-.56a.94.94,0,0,1-.79-.44A32,32,0,0,0,7,19.17,28.54,28.54,0,0,1,3.62,15,10,10,0,0,1,2,9.61a9.61,9.61,0,1,1,19.22,0,10.25,10.25,0,0,1-2,6,.94.94,0,0,1-1.55-1.06,8.46,8.46,0,0,0,1.66-4.92,7.73,7.73,0,0,0-15.47,0c0,3.39,2.08,5.67,4.49,8.3a38.63,38.63,0,0,1,3.25,3.89,38.65,38.65,0,0,1,3.25-3.89l.14-.16A.94.94,0,0,1,16.41,19l-.14.16a32,32,0,0,0-3.56,4.4A.94.94,0,0,1,11.92,24Zm-.33-9.28h0a.94.94,0,0,0-.94.94h0a.94.94,0,0,0,.94.94h0a.94.94,0,0,0,.94-.94h0a.94.94,0,0,0-.93-.94Zm1-2.06v-.06a.74.74,0,0,1,.44-.69,3.51,3.51,0,0,0,2.14-3.23v0a3.52,3.52,0,1,0-7,0,.94.94,0,0,0,1.88,0,1.64,1.64,0,0,1,3.28,0v0a1.64,1.64,0,0,1-1,1.48,2.62,2.62,0,0,0-1.58,2.41v.06a.94.94,0,0,0,1.88,0Z"/></svg>