<?xml version="1.0" encoding="utf-8"?>
<!-- Generator: Adobe Illustrator 21.0.0, SVG Export Plug-In . SVG Version: 6.00 Build 0)  -->
<svg version="1.1" id="Layer_1" xmlns="http://www.w3.org/2000/svg" xmlns:xlink="http://www.w3.org/1999/xlink" x="0px" y="0px"
	 viewBox="0 0 28 24" style="enable-background:new 0 0 28 24;" xml:space="preserve">
<style type="text/css">
	.st0{fill:#171717;}
</style>
<path id="lock_1_" class="st0" d="M25.6,17c0.5,0,0.9-0.4,0.9-0.9c0,0,0,0,0,0v-3.5c0-2.1-1.7-3.7-3.8-3.8h-1.1V5.5
	C21.6,2.4,19-0.1,15.9,0c-3,0.1-5.5,2.5-5.5,5.5v3.3H9.2c-2.1,0-3.7,1.7-3.8,3.8v7.7c0,2.1,1.7,3.7,3.8,3.8h13.5
	c2.1,0,3.7-1.7,3.8-3.8c0-0.5-0.5-0.9-1-0.9c-0.5,0-0.9,0.4-0.9,0.9c0,1-0.8,1.9-1.9,1.9H9.2c-1,0-1.9-0.8-1.9-1.9v-7.7
	c0-1,0.8-1.9,1.9-1.9h13.5c1,0,1.9,0.8,1.9,1.9V16C24.6,16.5,25,17,25.6,17C25.6,17,25.6,17,25.6,17z M12.2,5.5
	c0.1-2.1,1.8-3.7,3.9-3.6c2,0.1,3.6,1.7,3.6,3.6v3.3h-7.5V5.5z M16,15.3c0.5,0,0.9,0.4,0.9,0.9c0,0,0,0,0,0l0,0c0,0.5-0.5,0.9-1,0.9
	c-0.5,0-0.9-0.4-0.9-0.9l0,0C15.1,15.7,15.5,15.3,16,15.3C16,15.3,16,15.3,16,15.3z"/>
</svg>
