<svg id="Layer_1" data-name="Layer 1" xmlns="http://www.w3.org/2000/svg" viewBox="0 0 24 24"><defs><style>.cls-1{fill:#222528;}</style></defs><title>lock</title><path class="cls-1" d="M21.59,17a.94.94,0,0,0,.94-.94h0V12.59a3.75,3.75,0,0,0-3.75-3.75H17.65V5.53a5.63,5.63,0,0,0-11.25,0V8.84H5.28a3.75,3.75,0,0,0-3.75,3.75v7.69A3.75,3.75,0,0,0,5.28,24h13.5a3.75,3.75,0,0,0,3.75-3.75.94.94,0,0,0-1.87,0,1.88,1.88,0,0,1-1.87,1.88H5.28a1.88,1.88,0,0,1-1.87-1.87V12.59a1.88,1.88,0,0,1,1.88-1.87h13.5a1.88,1.88,0,0,1,1.88,1.88v3.47a.94.94,0,0,0,.94.94ZM8.28,5.53a3.75,3.75,0,0,1,7.5,0V8.84H8.28ZM12,15.35a.94.94,0,0,1,.94.94h0a.94.94,0,0,1-1.87,0h0a.94.94,0,0,1,.94-.94Z"/></svg>