<svg id="Layer_1" data-name="Layer 1" xmlns="http://www.w3.org/2000/svg" viewBox="0 0 24 24"><defs><style>.cls-1{fill:#222528;}</style></defs><title>membership</title><path class="cls-1" d="M23.06,6.8a.94.94,0,0,0-.94.94h0V20.25A1.88,1.88,0,0,1,20.93,22a2.34,2.34,0,0,0,0-.8,9.11,9.11,0,0,0-5.64-6.61,4.88,4.88,0,1,0-6.46,0A9.11,9.11,0,0,0,3.1,21.2a2.34,2.34,0,0,0,0,.8,1.88,1.88,0,0,1-1.19-1.75V3.75A1.88,1.88,0,0,1,3.75,1.88H13.6A.94.94,0,0,0,13.6,0H3.75A3.75,3.75,0,0,0,0,3.75v16.5A3.75,3.75,0,0,0,3.75,24h16.5A3.75,3.75,0,0,0,24,20.25V7.73A.94.94,0,0,0,23.06,6.8ZM12,7.93a3,3,0,1,1-3,3A3,3,0,0,1,12,7.93ZM5,22a.44.44,0,0,1-.09-.37,7.22,7.22,0,0,1,14.14,0,.45.45,0,0,1-.35.53H5.37A.44.44,0,0,1,5,22ZM15.37,4.23A.94.94,0,0,1,16.69,2.9L18.83,5a.12.12,0,0,0,.09,0A.12.12,0,0,0,19,5L22.3.39a.94.94,0,0,1,1.53,1.09L20.5,6.15l0,0A2,2,0,0,1,19,6.93h-.13a2,2,0,0,1-1.38-.55l0,0Z"/></svg>