<svg id="Layer_1" data-name="Layer 1" xmlns="http://www.w3.org/2000/svg" viewBox="0 0 24 24"><defs><style>.cls-1{fill:#fff;}</style></defs><title>menu</title><path class="cls-1" d="M20.59,6.94H3.53A3.47,3.47,0,0,1,3.53,0H20.59a3.47,3.47,0,0,1,0,6.94ZM3.53,1.88a1.59,1.59,0,0,0,0,3.19H20.59a1.59,1.59,0,0,0,0-3.19ZM20.59,15.47H3.53a3.47,3.47,0,1,1-.12-6.94H20.59a3.47,3.47,0,0,1,0,6.94ZM3.53,10.41a1.59,1.59,0,0,0-.08,3.19H20.59a1.59,1.59,0,0,0,0-3.19ZM24.06,20.53a3.47,3.47,0,0,0-3.47-3.47H3.53A3.47,3.47,0,1,0,3.41,24H15.9A.94.94,0,1,0,16,22.12H3.53a1.59,1.59,0,1,1-.08-3.19H20.59a1.59,1.59,0,0,1,0,3.19A.94.94,0,1,0,20.53,24h.06A3.47,3.47,0,0,0,24.06,20.53Z"/></svg>