<svg id="Layer_1" data-name="Layer 1" xmlns="http://www.w3.org/2000/svg" viewBox="0 0 24 24"><defs><style>.cls-1{fill:#222528;}</style></defs><title>news</title><path class="cls-1" d="M14.2,12.94a.94.94,0,0,0,0-1.87H12.94V7.35C14,7.32,15,7.24,16,7.11a18.28,18.28,0,0,1,.52,3,.94.94,0,0,0,1.87-.17,20.41,20.41,0,0,0-.52-3.14,18.28,18.28,0,0,0,2.45-.66A10.07,10.07,0,0,1,22.17,12a10.28,10.28,0,0,1-.08,1.29.94.94,0,1,0,1.86.24h0a12.21,12.21,0,0,0,.1-1.52,12,12,0,0,0-12-12h0a12,12,0,1,0,0,24h0a12.13,12.13,0,0,0,2.08-.18.94.94,0,0,0,.76-1.08h0l0-.11a.94.94,0,0,0-1.48-1,2.62,2.62,0,0,1-.45.29V18.48l.88,0a.94.94,0,0,0,.11-1.87l-1,0V12.94H14.2ZM8.93,19.4q-.18-.36-.34-.75c.79-.09,1.62-.15,2.47-.17v3.4A5.4,5.4,0,0,1,8.93,19.4Zm-1.68.84a10.9,10.9,0,0,0,.55,1A10.18,10.18,0,0,1,5,19.34c.51-.15,1.07-.28,1.65-.4a13.43,13.43,0,0,0,.56,1.3ZM3.71,17.8a10.06,10.06,0,0,1-1.79-4.86H5.55a21.08,21.08,0,0,0,.58,4.21A18.32,18.32,0,0,0,3.71,17.8Zm0-11.64a18.34,18.34,0,0,0,2.41.65,21,21,0,0,0-.6,4.25H1.92A10.06,10.06,0,0,1,3.73,6.16Zm7.33-.69c-.84,0-1.67-.08-2.45-.17q.15-.36.32-.7a5.4,5.4,0,0,1,2.14-2.48ZM7.25,3.76A13.53,13.53,0,0,0,6.7,5c-.58-.11-1.12-.24-1.63-.39A10.17,10.17,0,0,1,7.8,2.79,10.91,10.91,0,0,0,7.25,3.76ZM8,7.11c1,.13,2,.2,3.06.23v3.72H7.43A18.91,18.91,0,0,1,8,7.11Zm4.94-1.64V2.11A6.09,6.09,0,0,1,15.39,5.3C14.6,5.39,13.78,5.45,12.94,5.47Zm3.44-2.4-.19-.31A10.17,10.17,0,0,1,19,4.61c-.52.15-1.08.29-1.67.4a12.42,12.42,0,0,0-.92-1.95ZM11.06,16.61c-1.06,0-2.09.11-3.07.23a18.93,18.93,0,0,1-.56-3.9h3.64Zm12.51.71-5-4a1.33,1.33,0,0,0-2.17,1V21a1.29,1.29,0,0,0,2.16.93l1.19-1.09L21,23.47a.94.94,0,0,0,1.68-.82L21.4,20l.33-.16,1.34-.32a1.26,1.26,0,0,0,.51-2.22ZM21.29,18a1.86,1.86,0,0,0-.36.13l-2,.93a1.86,1.86,0,0,0-.47.32l-.25.23V15.45L21.42,18Z"/></svg>