<svg id="Layer_1" data-name="Layer 1" xmlns="http://www.w3.org/2000/svg" viewBox="0 0 24 24"><defs><style>.cls-1{fill:#222528;}</style></defs><title>permission</title><path class="cls-1" d="M11.89,24h-.56a.94.94,0,0,1-.79-.44A32,32,0,0,0,7,19.17,28.53,28.53,0,0,1,3.59,15,10,10,0,0,1,2,9.61a9.61,9.61,0,0,1,19.22,0,10.25,10.25,0,0,1-2,6,.94.94,0,1,1-1.59-1l0-.06a8.46,8.46,0,0,0,1.66-4.92,7.73,7.73,0,1,0-15.47,0c0,3.39,2.08,5.67,4.49,8.3a38.64,38.64,0,0,1,3.25,3.89,38.64,38.64,0,0,1,3.25-3.89l.14-.16A.94.94,0,0,1,16.38,19l-.14.16a32,32,0,0,0-3.56,4.4A.94.94,0,0,1,11.89,24Zm.66-9.61V9.34a.94.94,0,0,0-1.87,0V14.4a.94.94,0,0,0,1.88.06s0,0,0-.06Zm-.94-9.23a.94.94,0,0,0-.94.94h0a.94.94,0,0,0,1.88,0h0a.94.94,0,0,0-.93-.94h0Z"/></svg>