<svg id="Layer_1" data-name="Layer 1" xmlns="http://www.w3.org/2000/svg" viewBox="0 0 24 24"><defs><style>.cls-1{fill:#222528;}</style></defs><title>send</title><path class="cls-1" d="M23.2.8A2.72,2.72,0,0,0,20.42.14L1.83,6.37h0a2.72,2.72,0,0,0,0,5.13l7.71,2.94,3,7.77A2.7,2.7,0,0,0,15.12,24h0a2.7,2.7,0,0,0,2.57-1.81v0l6.18-18.6A2.7,2.7,0,0,0,23.2.8ZM15.92,21.57a.83.83,0,0,1-.8.56h0a.83.83,0,0,1-.8-.56v0l-3.19-8.17a.94.94,0,0,0-.54-.53L2.47,9.74h0a.84.84,0,0,1,0-1.59L20.64,2,12.79,9.88a.94.94,0,0,0,1.33,1.33L22,3.38Z"/></svg>