<svg id="Layer_1" data-name="Layer 1" xmlns="http://www.w3.org/2000/svg" viewBox="0 0 24 24"><defs><style>.cls-1{fill:#222528;}</style></defs><title>settings</title><path class="cls-1" d="M12,17.44a5.43,5.43,0,1,1,5.22-3.91.94.94,0,0,1-1.8-.53,3.56,3.56,0,1,0-2.34,2.4.94.94,0,0,1,.57,1.79A5.43,5.43,0,0,1,12,17.44Zm3.28,3.75v-.47a.31.31,0,0,1,.2-.29h0a.31.31,0,0,1,.35.06l.33.33a2.81,2.81,0,0,0,4,0l.66-.66a2.81,2.81,0,0,0,0-4l-.33-.33a.31.31,0,0,1-.06-.35v0a.31.31,0,0,1,.29-.2h.47A2.82,2.82,0,0,0,24,12.47v-.94a2.82,2.82,0,0,0-2.81-2.81h-.47a.31.31,0,0,1-.29-.2v0a.31.31,0,0,1,.06-.35l.33-.33a2.82,2.82,0,0,0,0-4l-.66-.66a2.81,2.81,0,0,0-4,0l-.33.33a.31.31,0,0,1-.34.06h0a.31.31,0,0,1-.2-.29V2.81A2.82,2.82,0,0,0,12.47,0h-.94A2.82,2.82,0,0,0,8.72,2.81v.47a.31.31,0,0,1-.2.29h0a.31.31,0,0,1-.35-.06l-.33-.33a2.81,2.81,0,0,0-4,0l-.66.66a2.82,2.82,0,0,0,0,4l.33.33a.32.32,0,0,1,.06.35h0a.31.31,0,0,1-.29.2H2.81A2.82,2.82,0,0,0,0,11.53v.94a2.82,2.82,0,0,0,2.81,2.81h.47a.31.31,0,0,1,.29.2v0a.31.31,0,0,1-.06.35l-.33.33a2.81,2.81,0,0,0,0,4l.66.66a2.81,2.81,0,0,0,4,0l.33-.33a.31.31,0,0,1,.34-.06h0a.31.31,0,0,1,.2.29v.47A2.82,2.82,0,0,0,11.53,24h.94A2.82,2.82,0,0,0,15.28,21.19Zm-8.45-2-.33.33a.94.94,0,0,1-1.33,0l-.66-.66a.94.94,0,0,1,0-1.33h0l.33-.33a2.18,2.18,0,0,0,.47-2.39h0a2.18,2.18,0,0,0-2-1.36H2.81a.94.94,0,0,1-.94-.94v-.94a.94.94,0,0,1,.94-.94h.47a2.18,2.18,0,0,0,2-1.36h0a2.18,2.18,0,0,0-.47-2.39L4.51,6.5a.94.94,0,0,1,0-1.33l.66-.66a.94.94,0,0,1,1.33,0l.33.33a2.18,2.18,0,0,0,2.39.47h0a2.18,2.18,0,0,0,1.36-2V2.81a.94.94,0,0,1,.94-.94h.94a.94.94,0,0,1,.94.94v.47a2.18,2.18,0,0,0,1.36,2h0a2.18,2.18,0,0,0,2.39-.47l.33-.33a.94.94,0,0,1,1.33,0l.66.66a.94.94,0,0,1,0,1.33l-.33.33a2.18,2.18,0,0,0-.47,2.39v0a2.18,2.18,0,0,0,2,1.36h.47a.94.94,0,0,1,.94.94v.94a.94.94,0,0,1-.94.94h-.47a2.18,2.18,0,0,0-2,1.36v0a2.18,2.18,0,0,0,.47,2.39l.33.33a.94.94,0,0,1,0,1.33l-.66.66a.94.94,0,0,1-1.33,0l-.33-.33a2.18,2.18,0,0,0-2.39-.47h0a2.18,2.18,0,0,0-1.36,2v.47a.94.94,0,0,1-.94.94h-.94a.94.94,0,0,1-.94-.94v-.47a2.18,2.18,0,0,0-1.36-2h0a2.21,2.21,0,0,0-.85-.17,2.17,2.17,0,0,0-1.54.63Z"/></svg>