<svg id="Layer_1" data-name="Layer 1" xmlns="http://www.w3.org/2000/svg" viewBox="0 0 24 24"><defs><style>.cls-1{fill:#222528;}</style></defs><title>sign-out</title><path class="cls-1" d="M3.75,0h16.5A3.75,3.75,0,0,1,24,3.75v.94a.94.94,0,0,1-1.87,0V3.75a1.88,1.88,0,0,0-1.87-1.87H3.75A1.88,1.88,0,0,0,1.88,3.75v16.5a1.88,1.88,0,0,0,1.88,1.88h16.5a1.88,1.88,0,0,0,1.88-1.87v-.94a.94.94,0,0,1,1.88,0v.94A3.75,3.75,0,0,1,20.25,24H3.75A3.75,3.75,0,0,1,0,20.25V3.75A3.75,3.75,0,0,1,3.75,0ZM18.38,6.46a.94.94,0,0,0,0,1.33h0l3.48,3.55h0a.94.94,0,0,1,0,1.33h0l-3.48,3.5a.94.94,0,0,0,1.33,1.32L23.18,14a2.82,2.82,0,0,0,0-4L19.7,6.47a.94.94,0,0,0-1.33,0h0ZM7.45,12a.94.94,0,0,0,.94.94h10a.94.94,0,0,0,0-1.87h-10a.94.94,0,0,0-.94.94Z"/></svg>