<svg id="Layer_1" data-name="Layer 1" xmlns="http://www.w3.org/2000/svg" viewBox="0 0 24 24"><defs><style>.cls-1{fill:#222528;}</style></defs><title>signed</title><path class="cls-1" d="M20.25,2H3.75A3.75,3.75,0,0,0,0,5.75V16.58a3.75,3.75,0,0,0,3.75,3.75H10.5a.94.94,0,0,0,0-1.87H3.75a1.88,1.88,0,0,1-1.87-1.87V6L10,11.08a3.73,3.73,0,0,0,4,0L22.13,6v3.3a.94.94,0,0,0,1.88,0V5.75A3.75,3.75,0,0,0,20.25,2ZM13,9.49a1.86,1.86,0,0,1-2,0L2.61,4.26a1.87,1.87,0,0,1,1.14-.39h16.5a1.87,1.87,0,0,1,1.14.39Zm6.21,2.9-5.15,5.14a.93.93,0,0,0-.24.39L12.7,21.6a.94.94,0,0,0,1.15,1.18l3.78-1a.93.93,0,0,0,.41-.24l5.14-5.13a2.81,2.81,0,1,0-4-4ZM16.89,20l-1.9.53.56-1.83L19,15.21l1.33,1.33Zm5-5-.18.18-1.33-1.33.18-.18A.94.94,0,0,1,21.85,15Z"/></svg>