<svg id="Layer_1" data-name="Layer 1" xmlns="http://www.w3.org/2000/svg" viewBox="0 0 24 24"><defs><style>.cls-1{fill:#222528;}</style></defs><title>spotlight</title><path class="cls-1" d="M12.95,11.06v12a.94.94,0,0,1-1.87,0v-12a.94.94,0,0,1,1.88,0ZM1,1.88H4.8a7.31,7.31,0,0,0,14.51,0h3.81A.94.94,0,0,0,23.22,0H10.42a.94.94,0,0,0-.06,1.87h7.06A5.44,5.44,0,0,1,6.62.94.94.94,0,0,0,5.69,0H1A.94.94,0,1,0,.94,1.88H1ZM1.5,8.24,3.75,6.79a.94.94,0,0,0-1-1.61l-.06,0L.48,6.67a.94.94,0,0,0,1,1.57Zm5.7.53a.94.94,0,0,0-1.29.32h0L.19,18.69a.94.94,0,0,0,1.61,1l5.73-9.6A.94.94,0,0,0,7.2,8.77ZM23.6,6.6,21.26,5.2a.94.94,0,0,0-1,1.61l2.34,1.41a.94.94,0,0,0,1-1.61ZM18.1,9.09a.94.94,0,0,0-1.6,1l5.82,9.6a.94.94,0,0,0,1.6-1Z"/></svg>