<svg id="Layer_1" data-name="Layer 1" xmlns="http://www.w3.org/2000/svg" viewBox="0 0 24 24"><defs><style>.cls-1{fill:#222528;}</style></defs><title>star</title><path class="cls-1" d="M6.18,23.51A2.58,2.58,0,0,1,4.66,23a2.55,2.55,0,0,1-.94-2.89l1.48-4.56a.71.71,0,0,0-.26-.79L1.07,11.94a2.6,2.6,0,0,1,1.52-4.7h4.8a.69.69,0,0,0,.68-.47L9.55,2.19a2.58,2.58,0,0,1,4.92,0l1.48,4.58a.69.69,0,0,0,.67.47h4.8a2.6,2.6,0,0,1,1.52,4.7l-2.65,1.92a.94.94,0,0,1-1.1-1.52l2.65-1.92a.7.7,0,0,0,.26-.81.69.69,0,0,0-.67-.5h-4.8a2.57,2.57,0,0,1-2.46-1.76L12.68,2.76a.71.71,0,0,0-1.35,0L9.84,7.35A2.57,2.57,0,0,1,7.39,9.12H2.59a.69.69,0,0,0-.67.5.7.7,0,0,0,.26.81l3.88,2.82A2.58,2.58,0,0,1,7,16.13L5.51,20.69a.71.71,0,0,0,1.09.79l3.88-2.82a2.58,2.58,0,0,1,3,0l3.88,2.82a.71.71,0,0,0,1.09-.79l-1-3.12A.94.94,0,0,1,19.26,17h0l1,3.12a2.58,2.58,0,0,1-4,2.89l-3.88-2.82a.71.71,0,0,0-.83,0L7.7,23A2.58,2.58,0,0,1,6.18,23.51Z"/></svg>