<svg id="Layer_1" data-name="Layer 1" xmlns="http://www.w3.org/2000/svg" viewBox="0 0 24 24"><defs><style>.cls-1{fill:#222528;}</style></defs><title>unlock</title><path class="cls-1" d="M20.63,16.43V13a1.88,1.88,0,0,0-1.87-1.87H5.25A1.88,1.88,0,0,0,3.38,13v7.69a1.88,1.88,0,0,0,1.88,1.88h13.5a1.88,1.88,0,0,0,1.88-1.87.94.94,0,1,1,1.88,0h0a3.75,3.75,0,0,1-3.75,3.75H5.25A3.75,3.75,0,0,1,1.5,20.65V13A3.75,3.75,0,0,1,5.25,9.21H6.37V5.91a5.63,5.63,0,0,1,11.25,0,.94.94,0,0,1-1.87,0h0a3.75,3.75,0,0,0-7.5,0V9.21h10.5A3.75,3.75,0,0,1,22.5,13v3.47a.94.94,0,0,1-.94.94h0a.94.94,0,0,1-.94-.94Zm-9.56.23h0a.94.94,0,0,0,1.88,0h0a.94.94,0,0,0-1.87,0Z"/></svg>