<?xml version="1.0" encoding="utf-8"?>
<!-- Generator: Adobe Illustrator 21.0.0, SVG Export Plug-In . SVG Version: 6.00 Build 0)  -->
<svg version="1.1" id="Layer_1" xmlns="http://www.w3.org/2000/svg" xmlns:xlink="http://www.w3.org/1999/xlink" x="0px" y="0px"
	 viewBox="0 0 28 24" style="enable-background:new 0 0 28 24;" xml:space="preserve">
<style type="text/css">
	.st0{fill:#171717;}
</style>
<g>
	<path class="st0" d="M15,16.3c0,0.5,0.5,0.9,1,0.9c0.5,0,0.9-0.4,0.9-0.9c0-0.5-0.5-0.9-1-0.9C15.5,15.4,15.1,15.8,15,16.3z"/>
	<path class="st0" d="M25.5,17c0.5,0,0.9-0.4,0.9-0.9v-3.5c0-2.1-1.7-3.7-3.8-3.8H12.2v0h0V5.5C12.2,2.4,9.7,0,6.6,0
		C3.5,0,1,2.5,1,5.5C1,6,1.4,6.5,1.9,6.5c0.5,0,0.9-0.4,0.9-0.9c0,0,0,0,0,0c0-2,1.7-3.7,3.8-3.7c2,0,3.7,1.6,3.8,3.6v3.3h0v0H9.2
		c-2.1,0-3.7,1.7-3.8,3.8v7.7c0,2.1,1.7,3.7,3.8,3.8h13.5c2.1,0,3.7-1.7,3.8-3.8c0,0,0,0,0-0.1c0-0.5-0.5-0.9-1-0.9s-0.9,0.5-0.9,1
		c0,1-0.8,1.9-1.9,1.9H9.2c-1,0-1.9-0.8-1.9-1.9v-7.7c0-1,0.8-1.9,1.9-1.9h13.5c1,0,1.9,0.8,1.9,1.9V16C24.6,16.5,25,17,25.5,17z"/>
</g>
</svg>
