<svg id="Layer_1" data-name="Layer 1" xmlns="http://www.w3.org/2000/svg" viewBox="0 0 24 24"><defs><style>.cls-1{fill:#222528;}</style></defs><title>vesting</title><path class="cls-1" d="M18.47,24H5.81A2.82,2.82,0,0,1,3,21.19V19.73C3,17.32,5.73,15,7.73,13.34l.75-.64a.91.91,0,0,0,0-1.41l-.75-.64C5.73,9,3,6.68,3,4.27V2.81A2.82,2.82,0,0,1,5.81,0H18.47a2.82,2.82,0,0,1,2.81,2.81V4.27c0,2.42-2.73,4.71-4.73,6.39l-.75.64a.92.92,0,0,0,0,1.41l.78.66a28,28,0,0,1,3,2.74.94.94,0,1,1-1.4,1.24,26.11,26.11,0,0,0-2.76-2.55l-.81-.68a2.79,2.79,0,0,1,0-4.24l.77-.66c1.52-1.28,4.06-3.41,4.06-5V2.81a.94.94,0,0,0-.94-.94H5.81a.94.94,0,0,0-.94.94V4.27c0,1.54,2.54,3.68,4.06,5l.77.66a2.79,2.79,0,0,1,0,4.24l-.77.66c-1.52,1.28-4.06,3.41-4.06,5v1.45a.94.94,0,0,0,.94.94H18.47a.94.94,0,0,0,.94-.94.94.94,0,0,1,1.88,0h0A2.82,2.82,0,0,1,18.47,24ZM16,20.11a.8.8,0,0,0,.59-1.34l0,0c-.71-.76-3.4-3-3.43-3.06a1.49,1.49,0,0,0-1.94,0S8.45,18,7.74,18.75l0,0a.8.8,0,0,0,.59,1.34Z"/></svg>