<svg id="Layer_1" data-name="Layer 1" xmlns="http://www.w3.org/2000/svg" viewBox="0 0 24 24"><defs><style>.cls-1{fill:#222528;}</style></defs><title>voting</title><path class="cls-1" d="M21.25,8.81H19.84A2.8,2.8,0,0,0,19,9L14.34,1.75,13.74.9,13.69.84A2.81,2.81,0,0,0,9,3.73l0,.06,0,.05c.15.3.3.61.47.94a25.12,25.12,0,0,1,1.21,2.63c-.07.49-.72.79-1.19.79H3.39a2.67,2.67,0,0,0-2.3,4,2.67,2.67,0,0,0-1,2.11,2.71,2.71,0,0,0,.68,1.8,2.66,2.66,0,0,0,.38.35,2.65,2.65,0,0,0,1,3.62l.09,0a2.53,2.53,0,0,0-.24,1.09A2.63,2.63,0,0,0,4.44,24H13.8a.94.94,0,0,0,0-1.87H4.62a.81.81,0,0,1-.38-1.52,1,1,0,0,0,.6-.93,1.11,1.11,0,0,0-1.15-1.06H3.46a.81.81,0,0,1-.82-.8h0a.8.8,0,0,1,.41-.69l0,0a1,1,0,0,0-.5-2,.77.77,0,0,1-.66-.79.81.81,0,0,1,.6-.77,1.17,1.17,0,0,0,.94-1.1,1.12,1.12,0,0,0-.54-.94.8.8,0,0,1,.45-1.45H9.55a3,3,0,0,0,3.07-2.65v0c0-.56-.41-1.44-1.42-3.45l-.43-.87a.93.93,0,0,1,0-.25.94.94,0,0,1,.94-.94.93.93,0,0,1,.63.24l.47.66,4.7,7.33A2.8,2.8,0,0,0,17,11.63v9.56A2.82,2.82,0,0,0,19.84,24h1.41a2.82,2.82,0,0,0,2.81-2.81V11.63A2.82,2.82,0,0,0,21.25,8.81Zm.94,12.38a.94.94,0,0,1-.94.94H19.84a.94.94,0,0,1-.94-.94V11.63a.94.94,0,0,1,.94-.94h1.41a.94.94,0,0,1,.94.94Z"/></svg>