<svg id="Layer_1" data-name="Layer 1" xmlns="http://www.w3.org/2000/svg" viewBox="0 0 24 24"><defs><style>.cls-1{fill:#222528;}</style></defs><title>whitelist</title><path class="cls-1" d="M23.06,16a.94.94,0,0,0,.94-.94h0V3.75A3.75,3.75,0,0,0,20.25,0H3.75A3.75,3.75,0,0,0,0,3.75v16.5A3.75,3.75,0,0,0,3.75,24h16.5A3.75,3.75,0,0,0,24,20.25a.94.94,0,0,0-1.87,0,1.88,1.88,0,0,1-1.87,1.88H7.45V18.47H19.31a.94.94,0,0,0,0-1.87H7.45V12.94H22.13v2.16a.94.94,0,0,0,.94.94ZM22.13,3.75V5.48H7.45V1.88h12.8A1.88,1.88,0,0,1,22.13,3.75ZM3.75,1.88H5.58V5.48H1.88V3.75A1.88,1.88,0,0,1,3.75,1.88ZM5.58,7.36v3.7H1.88V7.36Zm0,14.77H3.75a1.88,1.88,0,0,1-1.87-1.87V18.47h3.7Zm0-5.53H1.88V12.94h3.7Zm1.88-5.53V7.36H22.13v3.7Z"/></svg>