<svg id="Layer_1" data-name="Layer 1" xmlns="http://www.w3.org/2000/svg" viewBox="0 0 24 24"><defs><style>.cls-1{fill:#222528;}</style></defs><title>withdraw</title><path class="cls-1" d="M20.31,0H3.81A3.75,3.75,0,0,0,.06,3.75V13.88a3.75,3.75,0,0,0,3.75,3.75H8.26a.94.94,0,0,0,0-1.88H3.81a1.88,1.88,0,0,1-1.88-1.87v-7H22.18V9.19a.94.94,0,1,0,1.88,0V3.75A3.75,3.75,0,0,0,20.31,0ZM1.93,5V3.75A1.88,1.88,0,0,1,3.81,1.88h16.5a1.88,1.88,0,0,1,1.88,1.88V5Zm22.12,8.9a3.75,3.75,0,0,1-3.75,3.75H15.76a.94.94,0,0,1,0-1.88h4.55a1.88,1.88,0,0,0,1.88-1.87.94.94,0,0,1,1.88,0Zm-8.05,6a.94.94,0,0,1,0,1.33L14,23.17a2.81,2.81,0,0,1-4,0h0L8.12,21.25a.94.94,0,0,1,1.32-1.33l1.64,1.62V14.2a.94.94,0,0,1,1.88,0v7.42l1.73-1.71A.94.94,0,0,1,16,19.92Z"/></svg>