<svg id="Logo" xmlns="http://www.w3.org/2000/svg" xmlns:xlink="http://www.w3.org/1999/xlink" width="748.212" height="200" viewBox="0 0 748.212 200">
  <defs>
    <linearGradient id="linear-gradient" x1="0.5" x2="0.5" y2="1" gradientUnits="objectBoundingBox">
      <stop offset="0" stop-color="#6a7ee6"/>
      <stop offset="1" stop-color="#3b4680"/>
    </linearGradient>
    <linearGradient id="linear-gradient-2" x1="0.762" y1="0.762" x2="0.268" y2="0.211" gradientUnits="objectBoundingBox">
      <stop offset="0" stop-color="#fff" stop-opacity="0"/>
      <stop offset="1" stop-color="#fff"/>
    </linearGradient>
    <clipPath id="clip-path">
      <path id="Path_3541" data-name="Path 3541" d="M205.224,399.007V523.986a8.786,8.786,0,0,1-4.407,7.622l-24.852,14.355-9.627,5.561L156.5,557.2l-5.409,3.121a8.745,8.745,0,0,1-4.407,1.173,8.627,8.627,0,0,1-4.388-1.173l-49.723-28.71a8.786,8.786,0,0,1-4.407-7.622V399.007a8.786,8.786,0,0,1,4.407-7.622l49.723-28.71a8.8,8.8,0,0,1,8.795,0l24.871,14.355,24.852,14.355A8.786,8.786,0,0,1,205.224,399.007Z" transform="translate(-88.17 -361.497)" fill="none"/>
    </clipPath>
    <linearGradient id="linear-gradient-3" x1="0.5" y1="0.078" x2="0.5" y2="0.913" xlink:href="#linear-gradient"/>
  </defs>
  <g id="Group_6920" data-name="Group 6920" transform="translate(225.421 73.054)">
    <path id="Path_3530" data-name="Path 3530" d="M284.578,466.969c0,22.609-15.664,37.316-36.907,37.316-9.943,0-18.387-3.4-24.1-10.351v9.4H207.357V402.28h17.024v37.18c5.858-6.536,14.028-9.669,23.29-9.669C268.914,429.791,284.578,444.362,284.578,466.969Zm-17.3,0c0-13.89-9.26-22.741-21.518-22.741s-21.652,8.851-21.652,22.741,9.4,22.743,21.652,22.743S267.28,480.861,267.28,466.969Z" transform="translate(-207.357 -398.195)" fill="#231f20"/>
    <path id="Path_3531" data-name="Path 3531" d="M251.349,402.28h17.024V503.331H251.349Z" transform="translate(-168.146 -398.195)" fill="#231f20"/>
    <path id="Path_3532" data-name="Path 3532" d="M265.532,410.335c0-5.719,4.63-10.215,10.894-10.215s10.9,4.223,10.9,9.807c0,5.992-4.494,10.622-10.9,10.622C270.162,420.548,265.532,416.054,265.532,410.335Zm2.315,22.2h17.024v72.723H267.847Z" transform="translate(-155.504 -400.12)" fill="#231f20"/>
    <path id="Path_3533" data-name="Path 3533" d="M353.8,448.695v41.671H336.775V450.872c0-12.939-6.4-19.2-17.3-19.2-12.121,0-20.292,7.355-20.292,21.928v36.769H282.163V417.643H298.37v9.4c5.585-6.676,14.434-10.215,25.058-10.215C340.86,416.826,353.8,426.767,353.8,448.695Z" transform="translate(-140.681 -385.23)" fill="#231f20"/>
    <path id="Path_3534" data-name="Path 3534" d="M323.273,454c0-21.788,16.343-37.178,39.359-37.178,14.164,0,25.467,5.856,31.052,16.886l-13.075,7.628A20.577,20.577,0,0,0,362.5,431.263c-12.528,0-22.062,8.713-22.062,22.741,0,14.166,9.534,22.743,22.062,22.743a20.581,20.581,0,0,0,18.113-10.077l13.075,7.628C388.1,485.192,376.8,491.32,362.631,491.32,339.616,491.32,323.273,475.794,323.273,454Z" transform="translate(-104.038 -385.23)" fill="#231f20"/>
    <path id="Path_3535" data-name="Path 3535" d="M451.394,402.28V503.331H435.051v-9.4c-5.719,6.947-14.162,10.351-24.1,10.351-21.109,0-36.769-14.707-36.769-37.316s15.66-37.178,36.769-37.178c9.4,0,17.7,3.132,23.426,9.8V402.28Zm-16.751,64.689c0-13.89-9.4-22.741-21.654-22.741s-21.654,8.851-21.654,22.741,9.4,22.743,21.654,22.743S434.643,480.861,434.643,466.969Z" transform="translate(-78.667 -398.195)" fill="#4a58a2"/>
    <path id="Path_3536" data-name="Path 3536" d="M492.325,459.451H435.264c2.043,10.624,10.894,17.432,23.56,17.432,8.172,0,14.571-2.585,19.747-7.9l9.124,10.486c-6.537,7.764-16.752,11.849-29.28,11.849-24.377,0-40.176-15.662-40.176-37.316s15.935-37.178,37.588-37.178c21.245,0,36.771,14.843,36.771,37.586C492.6,455.776,492.461,457.819,492.325,459.451Zm-57.2-11.3h41.263c-1.36-10.486-9.394-17.7-20.562-17.7C444.8,430.443,436.762,437.527,435.128,448.148Z" transform="translate(-39.392 -385.23)" fill="#4a58a2"/>
    <path id="Path_3537" data-name="Path 3537" d="M510.7,489.981l-18.658-25.194L473.25,489.981H454.456l28.326-36.907-27.1-35.816H474.61l17.841,23.833,17.843-23.833h18.384L501.44,452.8,529.9,489.981Z" transform="translate(-7.112 -384.844)" fill="#4a58a2"/>
  </g>
  <g id="Group_6923" data-name="Group 6923">
    <path id="Path_3538" data-name="Path 3538" d="M205.224,399.007V523.986a8.786,8.786,0,0,1-4.407,7.622l-24.852,14.355-9.627,5.561L156.5,557.2l-5.409,3.121a8.745,8.745,0,0,1-4.407,1.173,8.627,8.627,0,0,1-4.388-1.173l-49.723-28.71a8.786,8.786,0,0,1-4.407-7.622V399.007a8.786,8.786,0,0,1,4.407-7.622l49.723-28.71a8.8,8.8,0,0,1,8.795,0l24.871,14.355,24.852,14.355A8.786,8.786,0,0,1,205.224,399.007Z" transform="translate(-88.17 -361.491)" fill="url(#linear-gradient)"/>
    <path id="Path_3539" data-name="Path 3539" d="M177.647,391.687V516.666a8.786,8.786,0,0,1-4.407,7.622l-24.852,14.355-9.627,5.56L123.517,553a8.744,8.744,0,0,1-4.407,1.173V418.487a8.847,8.847,0,0,0,4.312-1.173l49.7-28.71a8.914,8.914,0,0,0,2.61-2.27v-.019a8.645,8.645,0,0,0-2.61-2.27L148.35,369.729l.038-.019,24.852,14.355A8.786,8.786,0,0,1,177.647,391.687Z" transform="translate(-60.592 -354.171)" fill="#231f20" opacity="0.1" style="mix-blend-mode: darken;isolation: isolate"/>
    <path id="Path_3540" data-name="Path 3540" d="M202.512,393.646v.019a8.91,8.91,0,0,1-2.61,2.27l-49.7,28.71a8.836,8.836,0,0,1-8.814,0l-24.852-14.353L91.661,395.935a9.078,9.078,0,0,1-2.591-2.27v-.019a8.793,8.793,0,0,1,2.591-2.268l49.723-28.712a8.868,8.868,0,0,1,8.814,0l49.7,28.712A8.637,8.637,0,0,1,202.512,393.646Z" transform="translate(-87.368 -361.494)" opacity="0.2" fill="url(#linear-gradient-2)" style="mix-blend-mode: screen;isolation: isolate"/>
    <g id="Group_6922" data-name="Group 6922" transform="translate(0 0.007)">
      <g id="Group_6921" data-name="Group 6921" clip-path="url(#clip-path)">
        <path id="Sahdow" d="M182.174,397.35v94.68a8.786,8.786,0,0,1-4.407,7.622l-24.852,14.355-9.627,5.561-9.835,5.674-15.017-8.681a8.77,8.77,0,0,1-4.407-7.622V440.415a8.77,8.77,0,0,1,4.407-7.622l59.331-34.252A8.766,8.766,0,0,1,182.174,397.35Z" transform="translate(-65.12 -329.541)" fill="#231f20" opacity="0.2" style="mix-blend-mode: darken;isolation: isolate"/>
      </g>
    </g>
    <path id="Path_3542" data-name="Path 3542" d="M236.164,434.716v57.421a8.747,8.747,0,0,1-4.407,7.622l-49.7,28.71a8.794,8.794,0,0,1-4.407,1.173,8.694,8.694,0,0,1-4.407-1.173l-24.852-14.355-24.871-14.355a8.786,8.786,0,0,1-4.407-7.622V434.716a8.6,8.6,0,0,1,1.816-5.315v-.019a8.8,8.8,0,0,1,2.591-2.27L173.24,398.4a8.868,8.868,0,0,1,8.814,0l49.7,28.71a8.642,8.642,0,0,1,2.61,2.27v.019a8.489,8.489,0,0,1,1.74,4.426.921.921,0,0,1,.019.227A3.777,3.777,0,0,1,236.164,434.716Z" transform="translate(-60.592 -329.642)" fill="url(#linear-gradient-3)"/>
    <path id="Path_3543" data-name="Path 3543" d="M233.507,429.516v.019a8.913,8.913,0,0,1-2.61,2.27l-49.7,28.71a8.836,8.836,0,0,1-8.814,0L147.527,446.16l-24.871-14.355a9.083,9.083,0,0,1-2.591-2.27v-.019a8.8,8.8,0,0,1,2.591-2.27l49.723-28.71a8.867,8.867,0,0,1,8.814,0l49.7,28.71A8.643,8.643,0,0,1,233.507,429.516Z" transform="translate(-59.741 -329.522)" opacity="0.2" fill="url(#linear-gradient-2)" style="mix-blend-mode: screen;isolation: isolate"/>
    <path id="Path_3544" data-name="Path 3544" d="M208.578,427.274v57.42a8.747,8.747,0,0,1-4.407,7.622l-49.7,28.71a8.8,8.8,0,0,1-4.407,1.173V454.357a8.846,8.846,0,0,0,4.312-1.173l49.7-28.71a8.909,8.909,0,0,0,2.61-2.27v-.019a8.645,8.645,0,0,0-2.61-2.269L179.3,405.6l.038-.019,24.852,14.355a8.807,8.807,0,0,1,4.331,6.449.921.921,0,0,1,.019.227A3.778,3.778,0,0,1,208.578,427.274Z" transform="translate(-33.006 -322.199)" fill="#231f20" opacity="0.1" style="mix-blend-mode: darken;isolation: isolate"/>
  </g>
</svg>
