<svg id="Layer_1" data-name="Layer 1" xmlns="http://www.w3.org/2000/svg" viewBox="0 0 1160 178"><defs><style>.cls-1{fill:#dbdeec;}</style></defs><title>Trading</title><path class="cls-1" d="M48.42,37.32H0v-33H134.25v33H85.82V173.69H48.42Z"/><path class="cls-1" d="M165.17,4.31h65.69c34.76,0,64,12,64,51.44,0,23.69-12.71,42.11-36.68,46.41l43.15,71.53H256.5L221,106H202.56v67.71h-37.4Zm37.4,70.1h22.05c13.66,0,31.4-.48,31.4-18.9,0-17-15.34-19.62-29-19.62H202.56Z"/><path class="cls-1" d="M388.35,4.31h30.92l73.84,169.39H450.91l-14.62-35.89H370.37l-14.14,35.89H315Zm14.38,49.28-20.62,52.63h41.47Z"/><path class="cls-1" d="M522.11,4.31h56.1c54.66,0,100.45,23.21,100.45,85.17,0,54.79-44.83,84.21-95.41,84.21H522.11Zm37.4,134.94h19.42c34.76,0,60.89-13.16,60.89-51.68,0-33.26-26.61-48.81-58.25-48.81H559.51Z"/><path class="cls-1" d="M715.56,4.31H753V173.69h-37.4Z"/><path class="cls-1" d="M799,4.31H849.8L922,122h.48V4.31h37.4V173.69h-48.9L836.86,53.11h-.48V173.69H799Z"/><path class="cls-1" d="M1160,161.73c-22.06,11.48-46.27,16.27-71.2,16.27-53,0-91.58-34.69-91.58-89s38.6-89,91.58-89c26.85,0,50.58,6,67.6,21.77L1130,50.48c-10.07-10.53-22.29-16-41.23-16-31.88,0-52.74,23-52.74,54.55s20.86,54.55,52.74,54.55c16.3,0,28.29-4.55,35.24-8.37V107.66H1093.6V73.21H1160Z"/></svg>